<svg xmlns="http://www.w3.org/2000/svg" xml:space="preserve" width="2000" height="558" data-id="lg_UvyG1j3LP5eAov9Xtd" data-version="1" viewBox="0 0 2000 558"><g data-padding="20"><g transform="translate(10 14.271)scale(.94885)"><rect width="391.3" height="557.766" x="651.139" y="-279.883" fill="none" rx="0" ry="0" transform="translate(196.58 280)"/><path fill="#e03e0b" d="M1041.13 434.39H870.95V92.56h179.57q88.55 0 130.11 28.94 41.55 28.94 41.55 100.17 0 56.89-31.66 85.09-27.21 24.24-88.05 30.18-25.73 2.47-61.34 2.47Zm0-197.88v50.96h14.34q5.94 0 9.9-3.96 3.95-3.96 3.95-10.39v-22.75q0-6.43-3.95-10.14-3.96-3.72-9.9-3.72Z"/></g><path fill="transparent" stroke="transparent" d="M804.5 0h391v558h-391z"/></g></svg>